<?xml version="1.0" standalone="no"?>
<!DOCTYPE svg PUBLIC "-//W3C//DTD SVG 20010904//EN"
 "http://www.w3.org/TR/2001/REC-SVG-20010904/DTD/svg10.dtd">
<svg version="1.0" xmlns="http://www.w3.org/2000/svg"
 width="100.000000pt" height="100.000000pt" viewBox="0 0 100.000000 100.000000"
 preserveAspectRatio="xMidYMid meet">
<metadata>
Created by potrace 1.15, written by Peter Selinger 2001-2017
</metadata>
<g transform="translate(0.000000,100.000000) scale(0.100000,-0.100000)"
fill="#000000" stroke="none">
<path d="M382 892 c-30 -9 -50 -21 -46 -25 5 -4 2 -6 -6 -3 -8 4 -31 -3 -50
-15 -32 -20 -33 -22 -15 -35 10 -8 14 -14 9 -14 -6 0 -15 5 -22 12 -18 18 -74
-39 -66 -65 5 -16 3 -19 -10 -14 -18 7 -51 -46 -40 -65 4 -6 3 -8 -3 -5 -13 8
-26 -20 -16 -35 3 -6 1 -8 -4 -5 -11 7 -29 -60 -19 -70 3 -3 1 -14 -4 -24 -21
-39 33 -260 60 -244 5 3 12 0 16 -6 5 -8 3 -9 -6 -4 -8 5 -11 3 -8 -6 3 -8 10
-14 15 -14 6 0 15 -4 20 -9 5 -5 3 -6 -4 -2 -28 16 -10 -14 31 -52 54 -50 139
-94 162 -85 11 4 15 3 10 -5 -14 -22 124 -29 179 -8 16 6 17 6 5 -3 -26 -18 5
-12 81 16 149 55 253 196 265 360 6 72 4 87 -15 123 -12 23 -16 38 -10 34 9
-5 10 -2 6 10 -4 10 -7 20 -7 22 0 3 -4 3 -9 -1 -6 -3 -9 3 -9 12 1 17 -39 93
-49 93 -2 0 -1 -5 3 -12 4 -7 3 -8 -4 -4 -7 4 -12 13 -12 20 0 20 -57 69 -71
61 -8 -5 -10 -4 -5 3 9 15 -26 36 -101 61 -76 26 -176 27 -251 3z m34 -211
c-5 -8 30 -19 76 -24 9 -1 15 -3 13 -6 -3 -2 9 -19 25 -38 17 -18 30 -39 30
-46 0 -7 8 -3 17 8 16 20 16 16 -3 -30 -4 -10 -1 -14 7 -12 8 2 11 2 7 0 -5
-3 -8 -34 -8 -69 l0 -64 41 0 c32 0 47 6 71 30 l30 30 -4 115 c-2 97 -1 115
12 115 13 0 13 -1 0 -10 -13 -8 -13 -10 2 -10 9 0 20 4 23 10 4 6 13 5 26 -3
18 -11 20 -22 18 -131 -1 -72 -6 -125 -13 -133 -6 -8 -18 -22 -27 -32 -8 -9
-13 -23 -11 -29 2 -7 -2 -10 -11 -6 -9 3 -24 -3 -34 -13 -14 -14 -38 -19 -101
-22 -109 -4 -112 -1 -112 108 0 56 -4 92 -12 100 -11 11 -10 12 1 6 9 -5 12
-3 10 4 -3 7 -9 13 -14 13 -16 0 -47 19 -41 25 3 3 12 0 21 -7 8 -7 15 -9 15
-5 0 17 -37 34 -72 35 -26 0 -45 -8 -65 -26 -15 -15 -20 -21 -11 -14 10 6 23
10 30 7 8 -3 6 -6 -6 -6 -11 -1 -16 -6 -13 -15 4 -10 0 -12 -15 -8 -19 5 -20
1 -16 -107 1 -61 1 -107 0 -101 -3 7 -8 7 -18 0 -17 -15 -70 -4 -78 16 -3 8
-2 14 2 14 4 0 5 27 4 60 -5 74 11 150 40 193 21 33 80 67 116 67 9 0 24 5 32
10 19 12 23 12 16 1z"/>
</g>
</svg>
